<mxfile host="app.diagrams.net" modified="2023-04-18T15:39:08.298Z" agent="Mozilla/5.0 (X11; Ubuntu; Linux x86_64; rv:109.0) Gecko/20100101 Firefox/112.0" etag="L9eV1hRCk28YneTzFNSY" version="21.1.5" type="github">
  <diagram name="Page-1" id="xFDqLJpufFOzge_11MYX">
    <mxGraphModel dx="978" dy="579" grid="1" gridSize="10" guides="1" tooltips="1" connect="1" arrows="1" fold="1" page="1" pageScale="1" pageWidth="850" pageHeight="1100" math="0" shadow="0">
      <root>
        <mxCell id="0" />
        <mxCell id="1" parent="0" />
        <mxCell id="z56tG_IiwIUwBARWMX8U-1" value="" style="ellipse;shape=cloud;whiteSpace=wrap;html=1;" vertex="1" parent="1">
          <mxGeometry x="170" y="170" width="200" height="220" as="geometry" />
        </mxCell>
        <mxCell id="z56tG_IiwIUwBARWMX8U-2" value="State space" style="text;strokeColor=none;align=center;fillColor=none;html=1;verticalAlign=middle;whiteSpace=wrap;rounded=0;" vertex="1" parent="1">
          <mxGeometry x="180" y="360" width="60" height="30" as="geometry" />
        </mxCell>
        <mxCell id="z56tG_IiwIUwBARWMX8U-4" value="" style="ellipse;whiteSpace=wrap;html=1;" vertex="1" parent="1">
          <mxGeometry x="221" y="238" width="50" height="40" as="geometry" />
        </mxCell>
        <mxCell id="z56tG_IiwIUwBARWMX8U-5" value="&lt;font style=&quot;font-size: 18px;&quot;&gt;&lt;b&gt;s&lt;/b&gt;&lt;/font&gt;" style="text;strokeColor=none;align=center;fillColor=none;html=1;verticalAlign=middle;whiteSpace=wrap;rounded=0;" vertex="1" parent="1">
          <mxGeometry x="216" y="243" width="60" height="30" as="geometry" />
        </mxCell>
        <mxCell id="z56tG_IiwIUwBARWMX8U-8" value="" style="ellipse;shape=cloud;whiteSpace=wrap;html=1;" vertex="1" parent="1">
          <mxGeometry x="450" y="165" width="200" height="215" as="geometry" />
        </mxCell>
        <mxCell id="z56tG_IiwIUwBARWMX8U-9" value="Reward space" style="text;strokeColor=none;align=center;fillColor=none;html=1;verticalAlign=middle;whiteSpace=wrap;rounded=0;" vertex="1" parent="1">
          <mxGeometry x="610" y="340" width="60" height="30" as="geometry" />
        </mxCell>
        <mxCell id="z56tG_IiwIUwBARWMX8U-10" value="" style="curved=1;endArrow=classic;html=1;rounded=0;exitX=1;exitY=0.5;exitDx=0;exitDy=0;" edge="1" parent="1">
          <mxGeometry width="50" height="50" relative="1" as="geometry">
            <mxPoint x="272.5" y="270" as="sourcePoint" />
            <mxPoint x="517.5" y="290" as="targetPoint" />
            <Array as="points">
              <mxPoint x="367.5" y="320" />
              <mxPoint x="487.5" y="310" />
            </Array>
          </mxGeometry>
        </mxCell>
        <mxCell id="z56tG_IiwIUwBARWMX8U-12" value="" style="curved=1;endArrow=classic;html=1;rounded=0;exitX=1;exitY=0.5;exitDx=0;exitDy=0;" edge="1" parent="1">
          <mxGeometry width="50" height="50" relative="1" as="geometry">
            <mxPoint x="270" y="240" as="sourcePoint" />
            <mxPoint x="515" y="260" as="targetPoint" />
            <Array as="points">
              <mxPoint x="370" y="200" />
              <mxPoint x="490" y="230" />
            </Array>
          </mxGeometry>
        </mxCell>
        <mxCell id="z56tG_IiwIUwBARWMX8U-13" value="" style="rhombus;whiteSpace=wrap;html=1;" vertex="1" parent="1">
          <mxGeometry x="500" y="242.5" width="60" height="60" as="geometry" />
        </mxCell>
        <mxCell id="z56tG_IiwIUwBARWMX8U-14" value="&lt;font style=&quot;font-size: 18px;&quot;&gt;&lt;b&gt;r&lt;/b&gt;&lt;/font&gt;" style="text;strokeColor=none;align=center;fillColor=none;html=1;verticalAlign=middle;whiteSpace=wrap;rounded=0;" vertex="1" parent="1">
          <mxGeometry x="500" y="257.5" width="60" height="30" as="geometry" />
        </mxCell>
        <mxCell id="z56tG_IiwIUwBARWMX8U-15" value="&lt;font style=&quot;font-size: 18px;&quot;&gt;&lt;b&gt;a&lt;/b&gt;&lt;/font&gt;" style="text;strokeColor=none;align=center;fillColor=none;html=1;verticalAlign=middle;whiteSpace=wrap;rounded=0;" vertex="1" parent="1">
          <mxGeometry x="380" y="185" width="60" height="30" as="geometry" />
        </mxCell>
        <mxCell id="z56tG_IiwIUwBARWMX8U-16" value="&lt;font style=&quot;font-size: 18px;&quot;&gt;&lt;b&gt;a&#39;&lt;/b&gt;&lt;/font&gt;" style="text;strokeColor=none;align=center;fillColor=none;html=1;verticalAlign=middle;whiteSpace=wrap;rounded=0;" vertex="1" parent="1">
          <mxGeometry x="365" y="320" width="60" height="30" as="geometry" />
        </mxCell>
      </root>
    </mxGraphModel>
  </diagram>
</mxfile>
